<svg xmlns="http://www.w3.org/2000/svg" version="1.1"
    xmlns:xlink="http://www.w3.org/1999/xlink"
    xmlns:svgjs="http://svgjs.com/svgjs" width="512" height="512" x="0" y="0" viewBox="0 0 511.666 511.666" style="enable-background:new 0 0 512 512" xml:space="preserve" class="">
    <g>
        <g xmlns="http://www.w3.org/2000/svg">
            <g>
                <path d="m445.459 103.626c6.808-8.739 10.868-19.718 10.868-31.628v-20.778c-2.6-68.319-100.537-68.267-103.112 0v20.778c0 11.909 4.059 22.889 10.867 31.627-24.639 14.351-40.373 40.903-40.373 70.058v2.375c.492 13.254 19.513 13.244 20 0v-2.375c0-24.448 14.705-46.472 37.01-56.092 14.165 7.875 33.938 7.875 48.104 0 22.3 9.62 37.011 31.66 37.011 56.091v94.75c0 7.547-6.14 13.687-13.687 13.687-5.276 0-9.644 4.099-9.98 9.364l-11.836 185.748c-.632 7.187-5.532 14.432-13.715 14.432h-23.688c-8.215 0-13.121-7.303-13.722-14.517-3.977-47.952-7.855-137.878-11.844-185.857-.432-5.183-4.765-9.169-9.965-9.169-7.547 0-13.688-6.14-13.688-13.687v-2.375c-.492-13.254-19.513-13.244-20 0v2.375c0 15.336 10.3 28.311 24.346 32.37 3.702 48.429 7.376 131.479 11.22 178.004 1.56 18.731 16.027 32.857 33.652 32.857h23.688c17.625 0 32.093-14.125 33.653-32.857.006-.065.01-.129.015-.194l11.333-177.847c13.979-4.102 24.218-17.044 24.218-32.333v-94.75c-.001-29.135-15.74-55.702-40.375-70.057zm-40.689-.072c-17.4 0-31.556-14.156-31.556-31.556v-20.778c0-17.4 14.156-31.556 31.556-31.556 17.4 0 31.556 14.156 31.556 31.556v20.778c0 17.4-14.156 31.556-31.556 31.556z" fill="#000000" data-original="#000000" class=""></path>
                <path d="m277.03 182.634c5.522-7.586 8.782-16.919 8.782-26.999v-17.99c-2.319-60.929-89.662-60.884-91.959 0v17.99c0 10.08 3.26 19.412 8.782 26.998-20.989 12.833-34.328 35.855-34.328 61.041v73.377c0 13.565 8.899 25.091 21.167 29.046 3.196 40.538 6.352 96.364 9.631 135.891 1.409 16.919 14.51 29.678 30.474 29.678h20.509c15.964 0 29.065-12.759 30.474-29.678.003-.04.006-.079.009-.118l9.697-135.798c12.229-3.978 21.091-15.484 21.091-29.021v-73.377c0-25.181-13.34-48.206-34.329-61.04zm-63.177-44.989c0-14.325 11.654-25.979 25.979-25.979 14.325 0 25.979 11.654 25.979 25.979v17.99c-1.31 34.426-50.662 34.401-51.959 0v-17.99zm77.506 179.406c0 5.794-4.714 10.508-10.509 10.508-5.247 0-9.601 4.055-9.975 9.288l-10.25 143.531c-.488 5.618-4.256 11.288-10.539 11.288h-20.509c-6.302 0-10.074-5.704-10.543-11.337-3.443-41.447-6.804-102.138-10.254-143.6-.432-5.183-4.764-9.169-9.965-9.169-5.794 0-10.508-4.714-10.508-10.508v-73.377c0-20.396 12.161-38.828 30.652-47.076 12.362 6.628 29.386 6.628 41.747 0 18.491 8.25 30.653 26.685 30.653 47.077z" fill="#000000" data-original="#000000" class=""></path>
                <path d="m125.599 266.169c4.664-6.783 7.397-14.993 7.397-23.829v-16.082c-2.126-55.872-82.22-55.83-84.326 0v16.082c0 8.836 2.733 17.046 7.397 23.829-18.518 11.771-30.234 32.375-30.234 54.872v55.594c0 12.365 7.962 22.905 19.028 26.764 1.326 14.654 2.66 25.938 3.957 36.902 1.493 12.631 3.038 25.691 4.55 43.863 1.306 15.679 13.472 27.503 28.299 27.503h18.333c14.792 0 26.935-11.768 28.289-27.393l8.385-80.83c11.134-3.821 19.159-14.396 19.159-26.809v-55.595c0-22.492-11.717-43.099-30.234-54.871zm-56.929-39.911c1.118-29.369 43.219-29.347 44.326 0v16.082c-1.118 29.369-43.219 29.346-44.326 0zm67.163 150.376c0 4.595-3.738 8.333-8.333 8.333-5.124 0-9.418 3.872-9.947 8.968l-9.167 88.366c-.007.067-.013.134-.019.201-.38 4.553-3.376 9.163-8.368 9.163h-18.333c-4.992 0-7.988-4.609-8.367-9.162-1.542-18.517-3.106-31.752-4.62-44.552-1.492-12.618-3.035-25.666-4.547-43.815-.432-5.183-4.765-9.169-9.965-9.169-4.595 0-8.333-3.738-8.333-8.333v-55.594c0-17.641 10.423-33.605 26.317-40.908 11.116 5.774 26.25 5.774 37.366 0 15.893 7.303 26.318 23.27 26.318 40.908v55.594z" fill="#000000" data-original="#000000" class=""></path>
                <path d="m333.708 231.058c13.254-.492 13.244-19.513 0-20h-.007c-13.254.493-13.236 19.515.007 20z" fill="#000000" data-original="#000000" class=""></path>
            </g>
        </g>
    </g>
</svg>