<svg xmlns="http://www.w3.org/2000/svg" version="1.1"
    xmlns:xlink="http://www.w3.org/1999/xlink"
    xmlns:svgjs="http://svgjs.com/svgjs" width="512" height="512" x="0" y="0" viewBox="0 0 512.014 512.014" style="enable-background:new 0 0 512 512" xml:space="preserve" class="">
    <g>
        <g xmlns="http://www.w3.org/2000/svg">
            <path d="m7.792 275.162c7.605 5.614 20.631 14.269 37.851 22.166-23.135 7.91-39.823 29.852-39.823 55.633v74.176c0 11.602 9.439 21.041 21.041 21.041h83.666c4.143 0 7.5-3.357 7.5-7.5s-3.357-7.5-7.5-7.5h-45.266v-75.605c0-4.143-3.357-7.5-7.5-7.5s-7.5 3.357-7.5 7.5v75.605h-23.4c-3.331 0-6.041-2.71-6.041-6.041v-74.176c0-24.146 19.645-43.79 43.79-43.79h25.448c1.356 19.927 17.942 35.437 37.969 35.437 19.946 0 36.597-15.542 37.957-35.437h25.461c24.146 0 43.79 19.645 43.79 43.79v74.176c0 3.331-2.71 6.041-6.041 6.041h-23.401v-75.605c0-4.143-3.357-7.5-7.5-7.5s-7.5 3.357-7.5 7.5v75.605h-45.266c-4.143 0-7.5 3.357-7.5 7.5s3.357 7.5 7.5 7.5h83.667c11.603 0 21.041-9.439 21.041-21.041v-74.176c0-25.781-16.688-47.724-39.824-55.633 17.22-7.896 30.247-16.552 37.852-22.166 7.165-5.289 9.735-14.703 6.25-22.894-10.667-25.069-17.771-48.221-17.771-79.72 0-59.944-48.769-108.713-108.714-108.713-59.944 0-108.713 48.769-108.713 108.713 0 31.499-7.104 54.649-17.772 79.72-3.487 8.191-.917 17.605 6.249 22.894zm143.292 30.753c0 12.734-10.116 23.522-22.754 23.685-12.875.17-23.34-10.246-23.359-23.013 0-.012-.001-.025-.001-.037 0-11.453 0-16.554 0-22.152 14.431 4.691 30.611 5.039 46.114 0zm-23.057-32.862c-32.719 0-59.765-26.631-59.765-59.766v-40.76h29.86c16.81 0 31.872-7.58 41.896-14.276v5.091c0 7.698 6.864 13.56 14.43 12.427 13.747-2.049 25.077-9.886 33.345-16.817v54.336c-.001 33.074-26.986 59.765-59.766 59.765zm-112.683-14.911c11.387-26.76 18.97-51.556 18.97-85.593 0-51.674 42.039-93.713 93.713-93.713s93.714 42.039 93.714 93.713c0 34.038 7.583 58.834 18.969 85.593.754 1.771.196 3.807-1.355 4.952-10.782 7.958-33.28 22.5-63.499 31.077h-9.771v-16.565c21.955-13.04 36.708-36.984 36.708-64.319v-63.492c0-9.396-11.193-14.383-18.171-8.05l-.182.165c-6.941 6.304-17.186 15.604-29.422 18.487v-10.244c0-9.074-10.467-14.154-17.602-8.534-7.545 5.941-22.683 15.908-39.294 15.908h-30.403c-7.972 0-14.457 6.485-14.457 14.457v41.303c0 27.335 14.753 51.279 36.708 64.319v16.565h-9.771c-30.218-8.576-52.717-23.118-63.499-31.077-1.551-1.146-2.11-3.182-1.356-4.952z" fill="#000000" data-original="#000000" class=""></path>
            <path d="m504.514 373.876c4.143 0 7.5-3.357 7.5-7.5v-13.415c0-32.417-26.373-58.79-58.79-58.79h-25.36v-16.565c19.868-11.8 33.838-32.528 36.314-56.621h4.622c14.461 0 26.226-11.765 26.226-26.226 0-5.151-1.499-9.956-4.074-14.013v-15.766c0-55.771-45.373-101.144-101.144-101.144s-101.145 45.373-101.145 101.144v15.768c-2.576 4.057-4.074 8.861-4.074 14.012 0 14.461 11.766 26.226 26.227 26.226h4.622c2.476 24.093 16.446 44.82 36.313 56.62v16.565h-25.36c-32.417 0-58.79 26.373-58.79 58.79v74.176c0 11.602 9.439 21.041 21.041 21.041h202.333c11.603 0 21.041-9.439 21.041-21.041v-25.761c0-4.143-3.357-7.5-7.5-7.5s-7.5 3.357-7.5 7.5v25.761c0 3.331-2.71 6.041-6.041 6.041h-23.4v-75.605c0-4.143-3.357-7.5-7.5-7.5s-7.5 3.357-7.5 7.5v75.605h-125.534v-75.605c0-4.143-3.357-7.5-7.5-7.5s-7.5 3.357-7.5 7.5v75.605h-23.401c-3.331 0-6.041-2.71-6.041-6.041v-74.176c0-24.146 19.645-43.79 43.79-43.79h25.448c1.354 19.904 17.917 35.437 37.97 35.437 19.982 0 36.598-15.577 37.956-35.437h25.461c24.146 0 43.79 19.645 43.79 43.79v13.415c0 4.143 3.357 7.5 7.5 7.5zm-24.489-179.116c0 6.189-5.036 11.226-11.226 11.226h-4.227v-22.451h4.227c1.692 0 3.404.412 4.858 1.121 0 0 6.368 2.808 6.368 10.104zm-164.984 11.225h-4.227c-6.19 0-11.227-5.036-11.227-11.226 0-6.192 5.116-11.226 11.227-11.226h4.227zm0-39.106v1.655h-4.227c-2.214 0-4.782.318-7.152.992v-4.547c0-47.5 38.645-86.144 86.145-86.144s86.144 38.644 86.144 86.144v4.547c-4.179-1.184-7.151-.992-11.378-.992 0-17.759-15.198-25.004-27.086-21.511-15.875 4.672-31.892 7.876-48.295 7.87-16.063-.007-30.637-3.034-47.064-7.87-13.304-3.91-27.087 5.795-27.087 19.856zm97.822 139.036c0 12.737-10.118 23.522-22.753 23.685-12.891.17-23.342-10.262-23.36-23.015 0-.012-.001-.023-.001-.034 0-11.453 0-16.554 0-22.152 15.165 4.929 31.384 4.789 46.114 0zm-23.056-32.862c-32.797 0-59.658-26.648-59.761-59.577 0-.065-.002-.179-.005-.273 0-11.684 0-37.051 0-46.323 0-3.985 4.054-6.536 7.788-5.479.021.006.042.008.062.014 35.285 10.386 62.541 12.15 103.829 0 3.7-1.092 7.852 1.423 7.852 5.465v46.304c-.002.069-.005.149-.005.192 0 .015.001.029.001.044-.072 33.403-27.459 59.633-59.761 59.633z" fill="#000000" data-original="#000000" class=""></path>
        </g>
    </g>
</svg>